# xmcd
#
# Track frame offsets: 
#        150
#        22129
#        39242
#        58277
#        80222
#        97481
#        121437
#        128898
#        147507
#        164743
#        178438
#        203161
#
# Disc length: 2925 seconds
#
# Revision: 0
# Processed by: cddbd v1.5.2PL0 Copyright (c) Steve Scherf et al.
# Submitted via: ExactAudioCopyFreeDBPlugin 1.0
#
DISCID=c60b6b0c
DTITLE=Moreland and Arbuckle - Just a Dream
DYEAR=2011
DGENRE=Blues
TTITLE0=The Brown Bomber
TTITLE1=Just a Dream
TTITLE2=Purgatory
TTITLE3=Travel Every Mile
TTITLE4=Heartattack and Vine
TTITLE5=Troll
TTITLE6=Gypsy Violin
TTITLE7=Shadow Never Changes
TTITLE8=Good Love
TTITLE9=Who Will Be Next
TTITLE10=So Low
TTITLE11=White Lightnin'
EXTD=
EXTT0=
EXTT1=
EXTT2=
EXTT3=
EXTT4=
EXTT5=
EXTT6=
EXTT7=
EXTT8=
EXTT9=
EXTT10=
EXTT11=
PLAYORDER=
